inDegrees=no
num_controls=7
num_derivatives=13
num_iterations=117
num_multipliers=7
num_parameters=0
num_slacks=7
num_states=26
objective=0.504582
objective_accelerations=0.001321
objective_balance=0.002073
objective_effort=0.003742
objective_height=0.475106
objective_ligament=0.022340
solver_duration=1582.427193
status=Solve_Succeeded
success=true
DataType=double
version=3
OpenSimVersion=4.5
endheader
time	/jointset/ground_pelvis/pelvis_tilt/value	/jointset/ground_pelvis/pelvis_tx/value	/jointset/ground_pelvis/pelvis_ty/value	/jointset/hip_l/hip_flexion_l/value	/jointset/hip_l/hip_adduction_l/value	/jointset/hip_l/hip_rotation_l/value	/jointset/back/lumbar_extension/value	/jointset/patellofemoral_l/patellar_flexion_l/value	/jointset/knee_l/knee_flexion_l/value	/jointset/knee_l/knee_adduction_l/value	/jointset/knee_l/knee_rotation_l/value	/jointset/ankle_l/ankle_angle_l/value	/jointset/subtalar_l/subtalar_angle_l/value	/jointset/ground_pelvis/pelvis_tilt/speed	/jointset/ground_pelvis/pelvis_tx/speed	/jointset/ground_pelvis/pelvis_ty/speed	/jointset/hip_l/hip_flexion_l/speed	/jointset/hip_l/hip_adduction_l/speed	/jointset/hip_l/hip_rotation_l/speed	/jointset/back/lumbar_extension/speed	/jointset/patellofemoral_l/patellar_flexion_l/speed	/jointset/knee_l/knee_flexion_l/speed	/jointset/knee_l/knee_adduction_l/speed	/jointset/knee_l/knee_rotation_l/speed	/jointset/ankle_l/ankle_angle_l/speed	/jointset/subtalar_l/subtalar_angle_l/speed	/forceset/tau_hip_flexion_l	/forceset/tau_hip_adduction_l	/forceset/tau_hip_rotation_l	/forceset/tau_knee_flexion_l	/forceset/tau_ankle_angle_l	/forceset/tau_subtalar_angle_l	/forceset/tau_lumbar_extension	lambda_cid13_p0	lambda_cid13_p1	lambda_cid13_p2	lambda_cid13_p3	lambda_cid13_p4	lambda_cid13_p5	lambda_cid14_p0	/jointset/ground_pelvis/pelvis_tilt/accel	/jointset/ground_pelvis/pelvis_tx/accel	/jointset/ground_pelvis/pelvis_ty/accel	/jointset/hip_l/hip_flexion_l/accel	/jointset/hip_l/hip_adduction_l/accel	/jointset/hip_l/hip_rotation_l/accel	/jointset/back/lumbar_extension/accel	/jointset/patellofemoral_l/patellar_flexion_l/accel	/jointset/knee_l/knee_flexion_l/accel	/jointset/knee_l/knee_adduction_l/accel	/jointset/knee_l/knee_rotation_l/accel	/jointset/ankle_l/ankle_angle_l/accel	/jointset/subtalar_l/subtalar_angle_l/accel	gamma_cid13_p0	gamma_cid13_p1	gamma_cid13_p2	gamma_cid13_p3	gamma_cid13_p4	gamma_cid13_p5	gamma_cid14_p0
0.5	-0.07132394182897675	0.09162533822084837	0.895261524468248	0.2000118826669777	-0.3208005081885691	-0.5441524278514173	-0.1455632822902267	0.07616116490707055	0.07616116490709501	-0.1744349835716329	-0.1743369447112913	-0.04109479178001304	0.02015991912123453	-0.07645761112047801	0.05921569072323139	-0.003554702412171951	0.01307671019907534	-0.004978845911432045	-0.005482663133489875	-0.003993031619924882	0.01464867846340338	0.01464867846340101	-0.0002333860965103276	0.0003485399258849857	0.07616725280393019	0.03738304816538365	-0.00306205897646308	0.04786111336510295	-0.02103189778099796	-0.09701531438380306	0.07419483200180421	-0.05020624221914704	0.04563842250449558	-14.08465141079942	15.95204446163945	6.622786056700575	0.8467564189429361	-546.3164352276689	-29.91424656977865	-41.67505667596165	-0.02040941630893885	0.004347757919491165	-0.004346053513523535	0.005271561859308919	0.004731775292470406	-0.0132497824465515	0.1305916587933764	-0.0199584000802073	-0.01995840008020464	-0.0008472173444488314	-0.001599157836367394	-0.00622547243082408	0.004607499517733541	9.354287195063073e-11	3.040391355458198e-10	-2.448292738190977e-10	2.266502093434479e-11	4.676628946591254e-12	5.40005817190999e-10	4.083374898293273e-11
0.51	-0.07208945718784279	0.09221764785960312	0.8952257639091651	0.2001429109243243	-0.3208500489905586	-0.544207917339392	-0.1455966443124946	0.07630664889500052	0.07630664889497522	-0.1744373406396303	-0.1743335490177377	-0.04033350610821462	0.02053394984792218	-0.07663806303748938	0.05923991622826907	-0.003597016295024849	0.01312827401006838	-0.004928245104514197	-0.005614549064608784	-0.002674070957048778	0.01444589336896079	0.01444589336896123	-0.0002371299632037772	0.0003309224695121863	0.07608152460760553	0.03741957554622716	-0.003819630592637528	0.0490429101570697	-0.02079930524747044	-0.09537543573373287	0.07189586056121479	-0.05015562518302068	0.04616741127562966	-14.81021720894599	16.03525656795241	6.634473418371778	1.117439989375024	-546.3188762993868	-29.69727301526722	-41.67748771449913	-0.01575343520495212	0.0005118315731969137	-0.004115089639005486	0.004998702834222161	0.00538467558891786	-0.01305514258457256	0.1333435520216693	-0.02077243443541357	-0.02077243443491257	-3.347222464365404e-06	-0.001794533018072461	-0.01100001888549489	0.002647095388325164	8.7620121915943e-11	3.032836390219612e-10	-2.479942377335853e-10	3.002755930428224e-11	-8.042209439195585e-12	5.37904839180466e-10	4.000538693393354e-11
0.52	-0.07285655513704167	0.0928100101303638	0.8951895920044607	0.2002744348021872	-0.3208990516960427	-0.544264705115509	-0.1456166576717386	0.07645003825783905	0.07645003825784827	-0.1744397082214277	-0.174330319797553	-0.03957332842350833	0.0209082401960222	-0.07677412918677844	0.05922621712441446	-0.003636971536457494	0.01317583430569188	-0.004871226609697007	-0.005742320761332594	-0.001323299014689932	0.01422975346215441	0.01422975346215766	-0.0002354888655338519	0.0003152452739383644	0.07594565538519113	0.03743497244789205	-0.004577202209057471	0.05022470694901624	-0.02056671271329842	-0.09373555708392781	0.06959688912053695	-0.0501050081469727	0.04669640004664852	-15.53601280117572	16.11831259459243	6.646409902958341	1.388702629869518	-546.3246205349773	-29.48095025430858	-41.67988440088988	-0.01153226276444584	-0.003237163858849986	-0.003874325229465795	0.004470858785194635	0.006015312872328106	-0.01242693556748115	0.1369539146900795	-0.02262936255299095	-0.02262936255299071	0.0002297755281983668	-0.001211105676490255	-0.01625367764864193	0.0003814036820713874	7.692159963593598e-11	3.076257506758081e-10	-2.248318369251332e-10	4.64744490892569e-11	-2.031874400174073e-11	5.467887569694908e-10	3.528002541035688e-11
0.53	-0.07362479786016737	0.09340204846213002	0.8951530322306661	0.200406418291062	-0.3209474530380051	-0.5443227492265238	-0.1456230052689422	0.07659120155115777	0.07659120155114642	-0.1744420332093485	-0.1743272374262192	-0.03881475630203625	0.02128257979526101	-0.07686754005570601	0.05917539530539797	-0.003674585645130215	0.0132203310933132	-0.00480804941044412	-0.005865711778333794	5.892753289757658e-05	0.01400058174038005	0.01400058174038273	-0.0002288313182505738	0.0003017038851556381	0.07576063738365525	0.03742944487106609	-0.005308796217721887	0.05136925896628253	-0.02034063474791967	-0.09214155023308257	0.067354593200378	-0.0500527586599239	0.04720403513894714	-16.24349491314096	16.1980964665806	6.658133167203557	1.646843897379013	-546.3284346153589	-29.27391852910684	-41.68224386970367	-0.007214188126295108	-0.006912768077425819	-0.003645322425765862	0.004359234411777628	0.006617815922043658	-0.01217669762982431	0.139629219130893	-0.02340960189175651	-0.02340960189173983	0.00098535024701513	-0.001354459408145384	-0.02084557565687812	-0.001545242289142794	8.124842159191596e-11	3.274381178160099e-10	-2.380634545470188e-10	5.114367066960376e-11	-4.370437534226186e-11	5.854786061458529e-10	3.756368062101188e-11
0.54	-0.07439376842981506	0.09399339696027528	0.8951161082420377	0.2005388307769205	-0.3209951928294827	-0.5443820035502863	-0.1456153761618053	0.07673000342221711	0.07673000342221595	-0.1744442713005508	-0.1743242762296272	-0.03805827830342769	0.02165675903794662	-0.07691969849137453	0.05908825040022762	-0.003709814503221028	0.01326163370742315	-0.004738916512376963	-0.005984363309872907	0.001472041854000646	0.01375746902252313	0.01375746902252525	-0.0002181095342351216	0.0002910103392228401	0.07552683081208417	0.03740290113726483	-0.006040390226767172	0.05251381098351189	-0.02011455678217645	-0.09054754338253719	0.06511229728009552	-0.05000050917298839	0.04771167023105921	-16.95123869402618	16.27772375117888	6.670112589996903	1.906082181232476	-546.3357573658193	-29.06758551640851	-41.68456270281054	-0.003281776112617899	-0.01050178108949987	-0.003397275113077354	0.003832024082710648	0.007206452635170978	-0.01147903847500559	0.143131469393341	-0.02541756176953125	-0.02541756176953174	0.001042622874601453	-0.0006415371064132	-0.02601139165554529	-0.003821827712923003	1.02199028660052e-10	3.643665123028172e-10	-2.915607946875765e-10	4.278228061929845e-11	-7.938092226692678e-11	6.571452304741627e-10	4.76019926440084e-11
0.55	-0.07516306388418367	0.09458369267549804	0.8950788428249974	0.2006716392202046	-0.3210422226451664	-0.5444424337873403	-0.1455934493684786	0.07686629865786124	0.07686629865788176	-0.1744464128890836	-0.174321419478341	-0.03730439094066869	0.02203055052202662	-0.07693341552777465	0.05896486354078054	-0.003742960576618325	0.01329921439026079	-0.004667108150275904	-0.00610209961835689	0.002919643767400149	0.0134983775557597	0.01349837755576115	-0.000212660701001536	0.0002798398993166018	0.07524151258045721	0.03735015287110176	-0.006764030328922125	0.0536348118402883	-0.0198898628978907	-0.08896175571066954	0.06287118679774695	-0.04993593681699677	0.04821134490039877	-17.65803619398098	16.35201060600224	6.68274115589891	2.165779450352963	-546.3401480198885	-28.87439272425695	-41.68683782765363	0.0004798657196995585	-0.01416149591198228	-0.003227043977226588	0.003595009351200101	0.007158848059096563	-0.01198319831595385	0.1465235961502777	-0.02663503215726359	-0.02663503215722637	-7.187595421448076e-05	-0.001429858407416274	-0.0311613910980581	-0.006787771512676517	1.135850915285227e-10	3.847899225949899e-10	-3.144799813636538e-10	3.768979167144361e-11	-8.801028879053018e-11	6.989909001118873e-10	5.200222577507742e-11
0.5600000000000001	-0.07593231720228545	0.09517257365061867	0.8950412551931194	0.2008047982540864	-0.3210885362132147	-0.5445040538417488	-0.1455568567472492	0.0769999069602155	0.07699990696019111	-0.1744485735670897	-0.1743186894436441	-0.03655363063065872	0.02240365723435609	-0.07691127123918468	0.05880530237979529	-0.003774257470787253	0.01333175183183864	-0.004595666985696241	-0.006222326778075127	0.004405207434282163	0.01322008236789544	0.01322008236789621	-0.0002219274478683405	0.0002656670204276055	0.07490142026155394	0.03726594678714089	-0.007487670431574099	0.0547558126969646	-0.01966516901371231	-0.08737596803914986	0.0606300763151983	-0.04987136446122577	0.04871101956956385	-18.36513358162463	16.42612733770223	6.695651143319619	2.427068781414357	-546.3483850877939	-28.68200155425517	-41.68906767190911	0.003890488885413839	-0.01773664139701199	-0.003027439267397573	0.002823375830543416	0.007133013130882229	-0.01197720872179356	0.1507238200899888	-0.02925830598972859	-0.02925830598972948	-0.001900493145511562	-0.001242024902867725	-0.03696620911065875	-0.01011339127241713	1.134937013573954e-10	3.854073518536017e-10	-3.007053838823556e-10	3.651998404652918e-11	-6.418303883286085e-11	7.050514241209109e-10	4.963676423583366e-11
0.5700000000000001	-0.0767011652713419	0.0957596819358687	0.8950033649945724	0.2009382611106313	-0.3211341285907789	-0.5445668705842559	-0.1455052352780676	0.07713064727872969	0.07713064727873259	-0.1744508716625301	-0.1743161014383837	-0.03580652931964638	0.02277578256013582	-0.07685186438809022	0.05861070202569822	-0.003803342644285432	0.01336015631090505	-0.004521947357182175	-0.006339593654564704	0.00592372764873267	0.0129255919202795	0.01292559192027844	-0.0002372810868575439	0.0002530526298342838	0.0745111578241284	0.03715566702783961	-0.008175305323929958	0.0558241112655837	-0.01944973633322029	-0.08585702781687118	0.05847466839043144	-0.04980402050870064	0.04918152543363465	-19.04449335548638	16.49523704402772	6.708156225922168	2.667251256705409	-546.3541767196217	-28.50295004452241	-41.69125087173346	0.007937514240907838	-0.02116962158135867	-0.002783127374055107	0.002749510942619405	0.007620661714175242	-0.01138716579272738	0.1531123096311829	-0.02990283615715276	-0.02990283615737426	-0.001291223621861883	-0.001103409468787436	-0.04120885652146224	-0.01200299727152751	1.072415539956348e-10	3.869862081683285e-10	-2.908765499721788e-10	4.400183061486645e-11	-5.560644715951259e-11	7.072781714427606e-10	4.681205515615202e-11
